<svg width="138" height="36" viewBox="0 0 138 36" fill="none" xmlns="http://www.w3.org/2000/svg">
<path fill-rule="evenodd" clip-rule="evenodd" d="M7.71476 8.95816H20.4963V1.54894H0V35.2978H7.71476V22.9109H20.2544V15.4762H7.71476V8.95816ZM28.453 9.04728C29.6496 9.04728 30.6681 8.62717 31.521 7.77422C32.374 6.92126 32.7941 5.89008 32.7941 4.70613C32.7941 3.50946 32.374 2.491 31.521 1.63805C30.6681 0.785101 29.6369 0.36499 28.453 0.36499C27.2563 0.36499 26.2378 0.785101 25.3849 1.63805C24.5319 2.491 24.1118 3.50946 24.1118 4.70613C24.1118 5.90281 24.5319 6.92126 25.3849 7.77422C26.2378 8.62717 27.2563 9.04728 28.453 9.04728ZM24.8375 11.1733V35.2978H32.0685V11.1733H24.8375ZM57.9498 13.1465C56.2312 11.377 54.0797 10.4986 51.5081 10.4986V10.4858C48.3509 10.4858 46.0594 11.4661 44.6081 13.4266V11.1606H37.3771V35.2851H44.6081V22.1216C44.6081 20.4794 45.0155 19.2445 45.8175 18.4043C46.6196 17.5641 47.7144 17.144 49.102 17.144C50.3242 17.144 51.3299 17.5259 52.1192 18.277C52.9085 19.0408 53.3031 20.1229 53.3031 21.536V35.2851H60.5341V20.4794C60.5341 17.3604 59.6684 14.9161 57.9498 13.1465ZM90.2347 1.52348H83.0037V13.4393C81.2978 11.4788 78.9044 10.4986 75.8109 10.4986C72.6282 10.4986 69.9166 11.7334 67.6633 14.1905C65.41 16.6475 64.2897 19.6646 64.2897 23.2292C64.2897 26.8065 65.41 29.6964 67.6633 32.1534C69.9039 34.6104 72.6282 35.8452 75.8109 35.8452C78.9044 35.8452 81.2978 34.865 83.0037 32.9045V35.2978H90.2347V1.52348ZM107.803 29.5054C104.773 29.5054 102.851 28.3851 102.011 26.1318L102.023 26.119H119.146C119.337 25.2279 119.439 24.2604 119.439 23.2292C119.439 19.601 118.268 16.5711 115.938 14.1395C113.608 11.708 110.68 10.4986 107.179 10.4986C103.411 10.4986 100.33 11.708 97.9367 14.1395C95.5434 16.5583 94.3467 19.601 94.3467 23.2292C94.3467 26.8956 95.5561 29.9382 97.9876 32.3443C100.419 34.7504 103.665 35.9598 107.714 35.9598C112.348 35.9598 115.849 34.3048 118.229 30.9949L112.437 27.6722C111.304 28.8943 109.763 29.5054 107.803 29.5054ZM112.246 20.734H101.87C102.583 18.2006 104.327 16.9275 107.128 16.9275C109.84 16.9275 111.533 18.1879 112.246 20.734ZM133.493 11.9244C132.131 12.7519 131.215 13.9358 130.769 15.4762V15.4508V11.1606H123.538V35.2851H130.769V24.3877C130.769 22.198 131.533 20.6576 133.061 19.7792C134.588 18.9008 136.23 18.5952 138 18.8881V10.6895C136.358 10.6895 134.856 11.1096 133.493 11.9244ZM80.0366 18.1952C78.5981 18.1952 77.8724 18.8699 77.1468 20.2448H77.1213C76.3957 18.8826 75.6828 18.1952 74.2315 18.1952C72.6401 18.1952 71.3416 19.4173 71.3416 20.9323C71.3416 23.6701 74.219 26.3954 77.0964 29.1206L77.1341 29.1562C80.0366 26.4192 82.9265 23.6693 82.9265 20.9323C82.9265 19.4173 81.6407 18.1952 80.0366 18.1952Z" fill="#0088FF"/>
</svg>
